G04*
G04 #@! TF.GenerationSoftware,Altium Limited,Altium Designer,21.3.2 (30)*
G04*
G04 Layer_Color=16711935*
%FSTAX24Y24*%
%MOIN*%
G70*
G04*
G04 #@! TF.SameCoordinates,1A830F01-20DA-4C5A-9A70-DFAE4FF976D2*
G04*
G04*
G04 #@! TF.FilePolarity,Negative*
G04*
G01*
G75*
%ADD35C,0.1064*%
%ADD36R,0.1064X0.1064*%
%ADD37R,0.0710X0.0710*%
%ADD38C,0.0710*%
%ADD40R,0.0591X0.0591*%
%ADD41C,0.0591*%
%ADD42C,0.0680*%
%ADD43R,0.0680X0.0680*%
%ADD44R,0.1064X0.1064*%
%ADD45C,0.0678*%
%ADD46R,0.0678X0.0678*%
%ADD47R,0.0591X0.0591*%
%ADD48C,0.1280*%
%ADD49R,0.0966X0.0966*%
%ADD50C,0.0966*%
%ADD51R,0.0966X0.0966*%
%ADD52R,0.0710X0.0710*%
%ADD53C,0.0907*%
%ADD54R,0.0907X0.0907*%
%ADD55R,0.0812X0.0812*%
%ADD56C,0.0812*%
%ADD57O,0.0671X0.0592*%
%ADD58R,0.0671X0.0592*%
%ADD59O,0.0592X0.0671*%
%ADD60R,0.0592X0.0671*%
%ADD61C,0.0730*%
%ADD62P,0.0790X8X292.5*%
%ADD63R,0.0671X0.0671*%
%ADD64C,0.0671*%
%ADD65C,0.0474*%
%ADD66C,0.0316*%
D35*
X023228Y042717D02*
D03*
X021669D02*
D03*
X051181Y06889D02*
D03*
X035441Y029921D02*
D03*
X023236Y074409D02*
D03*
D36*
X024787Y042717D02*
D03*
X037Y029921D02*
D03*
X024795Y074409D02*
D03*
D37*
X051591Y058268D02*
D03*
X051787Y062598D02*
D03*
X041307Y04685D02*
D03*
Y051378D02*
D03*
Y055906D02*
D03*
Y04252D02*
D03*
X051394Y041929D02*
D03*
X023031Y030709D02*
D03*
Y034646D02*
D03*
X023047Y038386D02*
D03*
D38*
X050591Y058268D02*
D03*
X050787Y062598D02*
D03*
X049787D02*
D03*
X034449Y054331D02*
D03*
X028449Y034331D02*
D03*
X047449Y033831D02*
D03*
X045449Y054331D02*
D03*
X047449Y066331D02*
D03*
X028449Y063831D02*
D03*
X042307Y04685D02*
D03*
X043307D02*
D03*
X042307Y051378D02*
D03*
X043307D02*
D03*
X042307Y055906D02*
D03*
X043307D02*
D03*
X025984Y063827D02*
D03*
Y062827D02*
D03*
Y061827D02*
D03*
Y060827D02*
D03*
Y059827D02*
D03*
Y058827D02*
D03*
Y057827D02*
D03*
X043307Y04252D02*
D03*
X042307D02*
D03*
X050394Y041929D02*
D03*
X022032Y030709D02*
D03*
Y034646D02*
D03*
X022047Y038386D02*
D03*
D40*
X021457Y059055D02*
D03*
X025591Y07874D02*
D03*
X021063D02*
D03*
X05315Y078937D02*
D03*
X041339Y027559D02*
D03*
X052756D02*
D03*
X021063D02*
D03*
X051591Y05387D02*
D03*
X051575Y045866D02*
D03*
X041126Y059432D02*
D03*
D41*
X050591Y053853D02*
D03*
X049591Y05387D02*
D03*
X022655Y071276D02*
D03*
X022638Y070276D02*
D03*
X050575Y045849D02*
D03*
X049575Y045866D02*
D03*
X042126Y059449D02*
D03*
X043126Y059432D02*
D03*
X041226Y073032D02*
D03*
X041209Y072031D02*
D03*
D42*
X028449Y035731D02*
D03*
X028449Y046331D02*
D03*
Y055331D02*
D03*
Y066331D02*
D03*
X029449D02*
D03*
X030449D02*
D03*
X031449D02*
D03*
X032449D02*
D03*
X033449D02*
D03*
X034449D02*
D03*
X035449D02*
D03*
X036449D02*
D03*
X037449D02*
D03*
X038449D02*
D03*
X039449D02*
D03*
X040449D02*
D03*
X041449D02*
D03*
X042449D02*
D03*
X043449D02*
D03*
X044449D02*
D03*
X045449D02*
D03*
X028449Y065331D02*
D03*
X029449D02*
D03*
X030449D02*
D03*
X031449D02*
D03*
X032449D02*
D03*
X033449D02*
D03*
X034449D02*
D03*
X035449D02*
D03*
X036449D02*
D03*
X037449D02*
D03*
X038449D02*
D03*
X039449D02*
D03*
X040449D02*
D03*
X041449D02*
D03*
X042449D02*
D03*
X043449D02*
D03*
X044449D02*
D03*
X045449D02*
D03*
X047449Y050331D02*
D03*
Y049331D02*
D03*
Y052331D02*
D03*
Y051331D02*
D03*
Y045331D02*
D03*
Y044331D02*
D03*
Y043331D02*
D03*
Y042331D02*
D03*
Y041331D02*
D03*
Y039331D02*
D03*
Y040331D02*
D03*
Y054331D02*
D03*
Y055331D02*
D03*
Y058331D02*
D03*
Y059331D02*
D03*
Y060331D02*
D03*
Y061331D02*
D03*
Y062331D02*
D03*
Y063331D02*
D03*
Y064331D02*
D03*
Y053331D02*
D03*
X028449Y061331D02*
D03*
Y060331D02*
D03*
Y059331D02*
D03*
Y058331D02*
D03*
Y057331D02*
D03*
Y056331D02*
D03*
Y052331D02*
D03*
Y051331D02*
D03*
Y050331D02*
D03*
Y049331D02*
D03*
Y048331D02*
D03*
Y047331D02*
D03*
X028449Y043731D02*
D03*
Y042731D02*
D03*
Y041731D02*
D03*
Y040731D02*
D03*
Y039731D02*
D03*
Y038731D02*
D03*
Y037731D02*
D03*
Y036731D02*
D03*
D43*
X047449Y048331D02*
D03*
Y046331D02*
D03*
Y057331D02*
D03*
X028449Y062331D02*
D03*
Y053331D02*
D03*
X028449Y044731D02*
D03*
D44*
X051181Y067331D02*
D03*
D45*
X035102Y069094D02*
D03*
X034102D02*
D03*
X033102D02*
D03*
X032102D02*
D03*
X031102D02*
D03*
X030102D02*
D03*
X029102D02*
D03*
X030661Y062402D02*
D03*
X031661D02*
D03*
X032661D02*
D03*
X033661D02*
D03*
X034661D02*
D03*
X035661D02*
D03*
X036661D02*
D03*
X037661D02*
D03*
Y063402D02*
D03*
X036661D02*
D03*
X035661D02*
D03*
X034661D02*
D03*
X033661D02*
D03*
X032661D02*
D03*
X031661D02*
D03*
D46*
X028102Y069094D02*
D03*
X030661Y063402D02*
D03*
D47*
X022655Y069276D02*
D03*
X041209Y074032D02*
D03*
D48*
X028937Y072441D02*
D03*
Y077165D02*
D03*
X03374Y072365D02*
D03*
Y077165D02*
D03*
X02815Y074803D02*
D03*
X045984Y074682D02*
D03*
X051575Y077044D02*
D03*
Y072244D02*
D03*
X046772Y077044D02*
D03*
Y07232D02*
D03*
D49*
X031496Y037244D02*
D03*
D50*
Y028898D02*
D03*
X039331Y030709D02*
D03*
D51*
X047677D02*
D03*
D52*
X025984Y056827D02*
D03*
D53*
X043323Y038189D02*
D03*
X042323D02*
D03*
D54*
X041323D02*
D03*
D55*
X035252Y047835D02*
D03*
D56*
X034252D02*
D03*
X033252D02*
D03*
D57*
X046457Y036508D02*
D03*
X037992Y036114D02*
D03*
X037008Y043898D02*
D03*
D58*
X046457Y037508D02*
D03*
X037992Y037114D02*
D03*
X037008Y044898D02*
D03*
D59*
X036024Y051181D02*
D03*
D60*
X035024D02*
D03*
D61*
X034646Y04152D02*
D03*
D62*
Y04252D02*
D03*
D63*
X035874Y058273D02*
D03*
D64*
X032874Y058268D02*
D03*
D65*
X022835Y067913D02*
D03*
X025787D02*
D03*
X037008Y069094D02*
D03*
X02642Y03099D02*
D03*
X025771Y046243D02*
D03*
X026378Y052309D02*
D03*
X027165Y053346D02*
D03*
D66*
X042913Y032677D02*
D03*
X048622Y059449D02*
D03*
X048425Y072441D02*
D03*
M02*
