G04*
G04 #@! TF.GenerationSoftware,Altium Limited,Altium Designer,21.3.2 (30)*
G04*
G04 Layer_Color=16711935*
%FSTAX24Y24*%
%MOIN*%
G70*
G04*
G04 #@! TF.SameCoordinates,1A830F01-20DA-4C5A-9A70-DFAE4FF976D2*
G04*
G04*
G04 #@! TF.FilePolarity,Positive*
G04*
G01*
G75*
%ADD10C,0.0079*%
%ADD11C,0.0050*%
%ADD103C,0.0039*%
%ADD104R,0.0244X0.1150*%
%ADD105R,0.0244X0.1150*%
%ADD106R,0.1150X0.0244*%
%ADD107R,0.1150X0.0244*%
D10*
X052279Y05387D02*
G03*
X052279Y05387I-000039J0D01*
G01*
X022694Y068626D02*
G03*
X022694Y068626I-000039J0D01*
G01*
X052263Y045866D02*
G03*
X052263Y045866I-000039J0D01*
G01*
X040516Y059432D02*
G03*
X040516Y059432I-000039J0D01*
G01*
X041248Y074681D02*
G03*
X041248Y074681I-000039J0D01*
G01*
X022108Y054541D02*
G03*
X022108Y054541I-000039J0D01*
G01*
X035291Y048835D02*
G03*
X035291Y048835I-000039J0D01*
G01*
D11*
X050583Y052952D02*
G03*
X051499Y054363I-000036J001026D01*
G01*
X049682D02*
G03*
X050598Y052952I000952J-000385D01*
G01*
X023148Y071184D02*
G03*
X021737Y070268I-000385J-000952D01*
G01*
Y070283D02*
G03*
X023148Y069367I001026J000036D01*
G01*
X050567Y044949D02*
G03*
X051483Y046359I-000036J001026D01*
G01*
X049666D02*
G03*
X050582Y044949I000952J-000385D01*
G01*
X042134Y060349D02*
G03*
X041218Y058939I000036J-001026D01*
G01*
X043034D02*
G03*
X042118Y060349I-000952J000385D01*
G01*
X042126Y073024D02*
G03*
X040716Y07394I-001026J-000036D01*
G01*
Y072123D02*
G03*
X042126Y073039I000385J000952D01*
G01*
X049685Y05437D02*
X051496D01*
X023155Y06937D02*
Y071181D01*
X049669Y046366D02*
X05148D01*
X04122Y058931D02*
X043032D01*
X040709Y072126D02*
Y073937D01*
X023031Y054528D02*
X024606D01*
X023031Y050591D02*
X024606D01*
X023031D02*
Y054528D01*
X024606Y050591D02*
Y054528D01*
X036327Y046709D02*
Y048559D01*
X032177D02*
X036327D01*
X032177Y046709D02*
Y048559D01*
Y046709D02*
X036327D01*
D103*
X040039Y069898D02*
Y071047D01*
X04185Y069898D02*
Y071047D01*
X040039D02*
X04185D01*
X040039Y069898D02*
X04185D01*
X04437Y069307D02*
Y070457D01*
X046181Y069307D02*
Y070457D01*
X04437D02*
X046181D01*
X04437Y069307D02*
X046181D01*
X042929Y072717D02*
X044079D01*
X042929Y074528D02*
X044079D01*
X042929Y072717D02*
Y074528D01*
X044079Y072717D02*
Y074528D01*
X024488Y065764D02*
Y066913D01*
X026299Y065764D02*
Y066913D01*
X024488D02*
X026299D01*
X024488Y065764D02*
X026299D01*
X025409Y070787D02*
X026559D01*
X025409Y068976D02*
X026559D01*
Y070787D01*
X025409Y068976D02*
Y070787D01*
D104*
X041729Y070472D02*
D03*
D105*
X046059Y069882D02*
D03*
X026177Y066339D02*
D03*
D106*
X043504Y074406D02*
D03*
D107*
X025984Y069098D02*
D03*
M02*
