G04*
G04 #@! TF.GenerationSoftware,Altium Limited,Altium Designer,21.3.2 (30)*
G04*
G04 Layer_Physical_Order=2*
G04 Layer_Color=16711680*
%FSTAX24Y24*%
%MOIN*%
G70*
G04*
G04 #@! TF.SameCoordinates,1A830F01-20DA-4C5A-9A70-DFAE4FF976D2*
G04*
G04*
G04 #@! TF.FilePolarity,Positive*
G04*
G01*
G75*
%ADD67C,0.0394*%
%ADD68C,0.0197*%
%ADD70C,0.0984*%
%ADD71R,0.0984X0.0984*%
%ADD72R,0.0630X0.0630*%
%ADD73C,0.0630*%
%ADD75R,0.0511X0.0511*%
%ADD76C,0.0511*%
%ADD77C,0.0600*%
%ADD78R,0.0600X0.0600*%
%ADD79R,0.0984X0.0984*%
%ADD80C,0.0598*%
%ADD81R,0.0598X0.0598*%
%ADD82R,0.0511X0.0511*%
%ADD83C,0.1200*%
%ADD84R,0.0886X0.0886*%
%ADD85C,0.0886*%
%ADD86R,0.0886X0.0886*%
%ADD87R,0.0630X0.0630*%
%ADD88C,0.0827*%
%ADD89R,0.0827X0.0827*%
%ADD90R,0.0732X0.0732*%
%ADD91C,0.0732*%
%ADD92O,0.0591X0.0512*%
%ADD93R,0.0591X0.0512*%
%ADD94O,0.0512X0.0591*%
%ADD95R,0.0512X0.0591*%
%ADD96C,0.0650*%
%ADD97P,0.0704X8X292.5*%
%ADD98R,0.0591X0.0591*%
%ADD99C,0.0591*%
%ADD100C,0.0394*%
%ADD101C,0.0236*%
%ADD102C,0.0157*%
D67*
X037205Y073622D02*
X038265Y074682D01*
X045984D01*
X024795Y074409D02*
X025984D01*
X026772Y073622D02*
X037205D01*
X042913Y032677D02*
X048031D01*
X052953Y037598D02*
Y070866D01*
X048031Y032677D02*
X052953Y037598D01*
X051575Y072244D02*
X052953Y070866D01*
X025984Y074409D02*
X026772Y073622D01*
D68*
X028449Y049331D02*
X032874Y053756D01*
Y058268D01*
X022835Y067913D02*
X025787D01*
X028449Y067031D02*
X029134Y067717D01*
X028449Y066331D02*
Y067031D01*
X029134Y067717D02*
X03563D01*
X037008Y069094D01*
X02642Y040702D02*
X028449Y042731D01*
X02642Y03099D02*
Y040702D01*
X025771Y046243D02*
X026378Y046851D01*
Y052309D01*
X027165Y046457D02*
Y053346D01*
X024878Y04417D02*
X027165Y046457D01*
X023123Y04417D02*
X024878D01*
X021669Y042717D02*
X023123Y04417D01*
X042449Y064102D02*
Y065331D01*
X039173Y060827D02*
X042449Y064102D01*
X032661Y062402D02*
X034236Y060827D01*
X039173D01*
X041449Y064087D02*
Y065331D01*
X03878Y061417D02*
X041449Y064087D01*
X033661Y062402D02*
X034646Y061417D01*
X03878D01*
X038386Y061811D02*
X04047Y063895D01*
X034661Y062402D02*
X035252Y061811D01*
X038386D01*
X040449Y065331D02*
X04047Y06531D01*
Y063895D02*
Y06531D01*
X047449Y048331D02*
X048622Y049504D01*
Y059449D01*
X047449Y044331D02*
Y045331D01*
X045863Y074803D02*
X045984Y074682D01*
X049591Y05387D02*
Y057283D01*
X050575Y058268D01*
X048425Y068898D02*
Y072441D01*
Y068898D02*
X049213Y06811D01*
Y063173D02*
Y06811D01*
Y063173D02*
X049787Y062598D01*
D70*
X023228Y042717D02*
D03*
X021669D02*
D03*
X051181Y06889D02*
D03*
X035441Y029921D02*
D03*
X023236Y074409D02*
D03*
D71*
X024787Y042717D02*
D03*
X037Y029921D02*
D03*
X024795Y074409D02*
D03*
D72*
X051591Y058268D02*
D03*
X051787Y062598D02*
D03*
X041307Y04685D02*
D03*
Y051378D02*
D03*
Y055906D02*
D03*
Y04252D02*
D03*
X051394Y041929D02*
D03*
X023031Y030709D02*
D03*
Y034646D02*
D03*
X023047Y038386D02*
D03*
D73*
X050591Y058268D02*
D03*
X050787Y062598D02*
D03*
X049787D02*
D03*
X034449Y054331D02*
D03*
X028449Y034331D02*
D03*
X047449Y033831D02*
D03*
X045449Y054331D02*
D03*
X047449Y066331D02*
D03*
X028449Y063831D02*
D03*
X042307Y04685D02*
D03*
X043307D02*
D03*
X042307Y051378D02*
D03*
X043307D02*
D03*
X042307Y055906D02*
D03*
X043307D02*
D03*
X025984Y063827D02*
D03*
Y062827D02*
D03*
Y061827D02*
D03*
Y060827D02*
D03*
Y059827D02*
D03*
Y058827D02*
D03*
Y057827D02*
D03*
X043307Y04252D02*
D03*
X042307D02*
D03*
X050394Y041929D02*
D03*
X022032Y030709D02*
D03*
Y034646D02*
D03*
X022047Y038386D02*
D03*
D75*
X021457Y059055D02*
D03*
X025591Y07874D02*
D03*
X021063D02*
D03*
X05315Y078937D02*
D03*
X041339Y027559D02*
D03*
X052756D02*
D03*
X021063D02*
D03*
X051591Y05387D02*
D03*
X051575Y045866D02*
D03*
X041126Y059432D02*
D03*
D76*
X050591Y053853D02*
D03*
X049591Y05387D02*
D03*
X022655Y071276D02*
D03*
X022638Y070276D02*
D03*
X050575Y045849D02*
D03*
X049575Y045866D02*
D03*
X042126Y059449D02*
D03*
X043126Y059432D02*
D03*
X041226Y073032D02*
D03*
X041209Y072031D02*
D03*
D77*
X028449Y035731D02*
D03*
X028449Y046331D02*
D03*
Y055331D02*
D03*
Y066331D02*
D03*
X029449D02*
D03*
X030449D02*
D03*
X031449D02*
D03*
X032449D02*
D03*
X033449D02*
D03*
X034449D02*
D03*
X035449D02*
D03*
X036449D02*
D03*
X037449D02*
D03*
X038449D02*
D03*
X039449D02*
D03*
X040449D02*
D03*
X041449D02*
D03*
X042449D02*
D03*
X043449D02*
D03*
X044449D02*
D03*
X045449D02*
D03*
X028449Y065331D02*
D03*
X029449D02*
D03*
X030449D02*
D03*
X031449D02*
D03*
X032449D02*
D03*
X033449D02*
D03*
X034449D02*
D03*
X035449D02*
D03*
X036449D02*
D03*
X037449D02*
D03*
X038449D02*
D03*
X039449D02*
D03*
X040449D02*
D03*
X041449D02*
D03*
X042449D02*
D03*
X043449D02*
D03*
X044449D02*
D03*
X045449D02*
D03*
X047449Y050331D02*
D03*
Y049331D02*
D03*
Y052331D02*
D03*
Y051331D02*
D03*
Y045331D02*
D03*
Y044331D02*
D03*
Y043331D02*
D03*
Y042331D02*
D03*
Y041331D02*
D03*
Y039331D02*
D03*
Y040331D02*
D03*
Y054331D02*
D03*
Y055331D02*
D03*
Y058331D02*
D03*
Y059331D02*
D03*
Y060331D02*
D03*
Y061331D02*
D03*
Y062331D02*
D03*
Y063331D02*
D03*
Y064331D02*
D03*
Y053331D02*
D03*
X028449Y061331D02*
D03*
Y060331D02*
D03*
Y059331D02*
D03*
Y058331D02*
D03*
Y057331D02*
D03*
Y056331D02*
D03*
Y052331D02*
D03*
Y051331D02*
D03*
Y050331D02*
D03*
Y049331D02*
D03*
Y048331D02*
D03*
Y047331D02*
D03*
X028449Y043731D02*
D03*
Y042731D02*
D03*
Y041731D02*
D03*
Y040731D02*
D03*
Y039731D02*
D03*
Y038731D02*
D03*
Y037731D02*
D03*
Y036731D02*
D03*
D78*
X047449Y048331D02*
D03*
Y046331D02*
D03*
Y057331D02*
D03*
X028449Y062331D02*
D03*
Y053331D02*
D03*
X028449Y044731D02*
D03*
D79*
X051181Y067331D02*
D03*
D80*
X035102Y069094D02*
D03*
X034102D02*
D03*
X033102D02*
D03*
X032102D02*
D03*
X031102D02*
D03*
X030102D02*
D03*
X029102D02*
D03*
X030661Y062402D02*
D03*
X031661D02*
D03*
X032661D02*
D03*
X033661D02*
D03*
X034661D02*
D03*
X035661D02*
D03*
X036661D02*
D03*
X037661D02*
D03*
Y063402D02*
D03*
X036661D02*
D03*
X035661D02*
D03*
X034661D02*
D03*
X033661D02*
D03*
X032661D02*
D03*
X031661D02*
D03*
D81*
X028102Y069094D02*
D03*
X030661Y063402D02*
D03*
D82*
X022655Y069276D02*
D03*
X041209Y074032D02*
D03*
D83*
X028937Y072441D02*
D03*
Y077165D02*
D03*
X03374Y072365D02*
D03*
Y077165D02*
D03*
X02815Y074803D02*
D03*
X045984Y074682D02*
D03*
X051575Y077044D02*
D03*
Y072244D02*
D03*
X046772Y077044D02*
D03*
Y07232D02*
D03*
D84*
X031496Y037244D02*
D03*
D85*
Y028898D02*
D03*
X039331Y030709D02*
D03*
D86*
X047677D02*
D03*
D87*
X025984Y056827D02*
D03*
D88*
X043323Y038189D02*
D03*
X042323D02*
D03*
D89*
X041323D02*
D03*
D90*
X035252Y047835D02*
D03*
D91*
X034252D02*
D03*
X033252D02*
D03*
D92*
X046457Y036508D02*
D03*
X037992Y036114D02*
D03*
X037008Y043898D02*
D03*
D93*
X046457Y037508D02*
D03*
X037992Y037114D02*
D03*
X037008Y044898D02*
D03*
D94*
X036024Y051181D02*
D03*
D95*
X035024D02*
D03*
D96*
X034646Y04152D02*
D03*
D97*
Y04252D02*
D03*
D98*
X035874Y058273D02*
D03*
D99*
X032874Y058268D02*
D03*
D100*
X022835Y067913D02*
D03*
X025787D02*
D03*
X037008Y069094D02*
D03*
X02642Y03099D02*
D03*
X025771Y046243D02*
D03*
X026378Y052309D02*
D03*
X027165Y053346D02*
D03*
D101*
X042913Y032677D02*
D03*
X048622Y059449D02*
D03*
X048425Y072441D02*
D03*
D102*
X026937Y063843D02*
X028449Y062331D01*
X026181Y063843D02*
X026937D01*
Y062843D02*
X028449Y061331D01*
X026181Y062843D02*
X026937D01*
Y061843D02*
X028449Y060331D01*
X026181Y061843D02*
X026937D01*
Y060843D02*
X028449Y059331D01*
X026181Y060843D02*
X026937D01*
Y059843D02*
X028449Y058331D01*
X026181Y059843D02*
X026937D01*
X026181Y058843D02*
X027693Y057331D01*
X028449D01*
X026181Y057843D02*
X027693Y056331D01*
X028449D01*
X026181Y056843D02*
X027693Y055331D01*
X028449D01*
M02*
