G04*
G04 #@! TF.GenerationSoftware,Altium Limited,Altium Designer,21.3.2 (30)*
G04*
G04 Layer_Color=32768*
%FSTAX24Y24*%
%MOIN*%
G70*
G04*
G04 #@! TF.SameCoordinates,1A830F01-20DA-4C5A-9A70-DFAE4FF976D2*
G04*
G04*
G04 #@! TF.FilePolarity,Positive*
G04*
G01*
G75*
%ADD103C,0.0039*%
%ADD108C,0.0020*%
D103*
X040748Y070472D02*
X041142D01*
X040945Y070276D02*
Y070669D01*
X045079Y069882D02*
X045472D01*
X045276Y069685D02*
Y070079D01*
X043504Y073425D02*
Y073819D01*
X043307Y073622D02*
X043701D01*
X025197Y066339D02*
X025591D01*
X025394Y066142D02*
Y066535D01*
X025984Y069685D02*
Y070079D01*
X025787Y069882D02*
X026181D01*
D108*
X051944Y052854D02*
Y054468D01*
X049237D02*
X051944D01*
X049237Y052854D02*
Y054468D01*
Y052854D02*
X051944D01*
X039545Y069783D02*
Y071161D01*
X042345Y069783D02*
Y071161D01*
X039545D02*
X042345D01*
X039545Y069783D02*
X042345D01*
X043876Y069193D02*
Y070571D01*
X046676Y069193D02*
Y070571D01*
X043876D02*
X046676D01*
X043876Y069193D02*
X046676D01*
X042815Y072222D02*
X044193D01*
X042815Y075022D02*
X044193D01*
X042815Y072222D02*
Y075022D01*
X044193Y072222D02*
Y075022D01*
X023994Y06565D02*
Y067028D01*
X026794Y06565D02*
Y067028D01*
X023994D02*
X026794D01*
X023994Y06565D02*
X026794D01*
X025295Y071282D02*
X026673D01*
X025295Y068482D02*
X026673D01*
Y071282D01*
X025295Y068482D02*
Y071282D01*
X021639Y068922D02*
Y07163D01*
X023254D01*
Y068922D02*
Y07163D01*
X021639Y068922D02*
X023254D01*
X032638Y031102D02*
Y035039D01*
X030965Y028346D02*
X032028D01*
X030354Y031102D02*
Y035039D01*
X030965Y037795D02*
X032028D01*
Y035039D02*
Y037795D01*
Y035039D02*
X032638D01*
X030965D02*
Y037795D01*
X030354Y035039D02*
X030965D01*
X032028Y028346D02*
Y031102D01*
X030965Y028346D02*
Y031102D01*
X032028D02*
X032638D01*
X030354D02*
X030965D01*
X041535Y029567D02*
X045472D01*
X03878Y030177D02*
Y03124D01*
X041535Y03185D02*
X045472D01*
X048228Y030177D02*
Y03124D01*
X045472Y030177D02*
X048228D01*
X045472Y029567D02*
Y030177D01*
Y03124D02*
X048228D01*
X045472D02*
Y03185D01*
X03878Y030177D02*
X041535D01*
X03878Y03124D02*
X041535D01*
Y029567D02*
Y030177D01*
Y03124D02*
Y03185D01*
X051929Y04485D02*
Y046465D01*
X049221D02*
X051929D01*
X049221Y04485D02*
Y046465D01*
Y04485D02*
X051929D01*
X040772Y058833D02*
Y060448D01*
Y058833D02*
X04348D01*
Y060448D01*
X040772D02*
X04348D01*
X04061Y074385D02*
X042225D01*
X04061Y071678D02*
Y074385D01*
Y071678D02*
X042225D01*
Y074385D01*
X04022Y037402D02*
X044433D01*
Y039449D01*
X04022D02*
X044433D01*
X04022Y037402D02*
Y039449D01*
X022358Y054626D02*
X02528D01*
X022358Y050492D02*
X02528D01*
X022358D02*
Y054626D01*
X02528Y050492D02*
Y054626D01*
X036425Y04661D02*
Y048657D01*
X032079D02*
X036425D01*
X032079Y04661D02*
Y048657D01*
Y04661D02*
X036425D01*
M02*
