G04*
G04 #@! TF.GenerationSoftware,Altium Limited,Altium Designer,21.3.2 (30)*
G04*
G04 Layer_Color=128*
%FSTAX24Y24*%
%MOIN*%
G70*
G04*
G04 #@! TF.SameCoordinates,1A830F01-20DA-4C5A-9A70-DFAE4FF976D2*
G04*
G04*
G04 #@! TF.FilePolarity,Positive*
G04*
G01*
G75*
%ADD109C,0.0020*%
D109*
X022933Y042717D02*
X023524D01*
X023228Y042421D02*
Y043012D01*
X024492Y042717D02*
X025083D01*
X024787Y042421D02*
Y043012D01*
X021374Y042717D02*
X021965D01*
X021669Y042421D02*
Y043012D01*
X051433Y058268D02*
X051748D01*
X051591Y05811D02*
Y058425D01*
X050433Y058268D02*
X050748D01*
X050591Y05811D02*
Y058425D01*
X05063Y062598D02*
X050945D01*
X050787Y062441D02*
Y062756D01*
X05163Y062598D02*
X051945D01*
X051787Y062441D02*
Y062756D01*
X04963Y062598D02*
X049945D01*
X049787Y062441D02*
Y062756D01*
X020669Y059055D02*
X022244D01*
X021457Y058268D02*
Y059843D01*
X024803Y07874D02*
X026378D01*
X025591Y077953D02*
Y079528D01*
X020276Y07874D02*
X02185D01*
X021063Y077953D02*
Y079528D01*
X052362Y078937D02*
X053937D01*
X05315Y07815D02*
Y079724D01*
X040551Y027559D02*
X042126D01*
X041339Y026772D02*
Y028346D01*
X051968Y027559D02*
X053543D01*
X052756Y026772D02*
Y028346D01*
X020276Y027559D02*
X02185D01*
X021063Y026772D02*
Y028346D01*
X051435Y05387D02*
X051746D01*
X051591Y053715D02*
Y054026D01*
X050435Y053853D02*
X050746D01*
X050591Y053697D02*
Y054008D01*
X049435Y05387D02*
X049746D01*
X049591Y053715D02*
Y054026D01*
X033819Y054331D02*
X035079D01*
X034449Y053701D02*
Y054961D01*
X028299Y035731D02*
X028599D01*
X028449Y035581D02*
Y035881D01*
X028299Y046331D02*
X028599D01*
X028449Y046181D02*
Y046481D01*
X028299Y055331D02*
X028599D01*
X028449Y055181D02*
Y055481D01*
X028299Y066331D02*
X028599D01*
X028449Y066181D02*
Y066481D01*
X029299Y066331D02*
X029599D01*
X029449Y066181D02*
Y066481D01*
X030299Y066331D02*
X030599D01*
X030449Y066181D02*
Y066481D01*
X031299Y066331D02*
X031599D01*
X031449Y066181D02*
Y066481D01*
X032299Y066331D02*
X032599D01*
X032449Y066181D02*
Y066481D01*
X033299Y066331D02*
X033599D01*
X033449Y066181D02*
Y066481D01*
X034299Y066331D02*
X034599D01*
X034449Y066181D02*
Y066481D01*
X035299Y066331D02*
X035599D01*
X035449Y066181D02*
Y066481D01*
X036299Y066331D02*
X036599D01*
X036449Y066181D02*
Y066481D01*
X037299Y066331D02*
X037599D01*
X037449Y066181D02*
Y066481D01*
X038299Y066331D02*
X038599D01*
X038449Y066181D02*
Y066481D01*
X039299Y066331D02*
X039599D01*
X039449Y066181D02*
Y066481D01*
X040299Y066331D02*
X040599D01*
X040449Y066181D02*
Y066481D01*
X041299Y066331D02*
X041599D01*
X041449Y066181D02*
Y066481D01*
X042299Y066331D02*
X042599D01*
X042449Y066181D02*
Y066481D01*
X043299Y066331D02*
X043599D01*
X043449Y066181D02*
Y066481D01*
X044299Y066331D02*
X044599D01*
X044449Y066181D02*
Y066481D01*
X045299Y066331D02*
X045599D01*
X045449Y066181D02*
Y066481D01*
X028299Y065331D02*
X028599D01*
X028449Y065181D02*
Y065481D01*
X029299Y065331D02*
X029599D01*
X029449Y065181D02*
Y065481D01*
X030299Y065331D02*
X030599D01*
X030449Y065181D02*
Y065481D01*
X031299Y065331D02*
X031599D01*
X031449Y065181D02*
Y065481D01*
X032299Y065331D02*
X032599D01*
X032449Y065181D02*
Y065481D01*
X033299Y065331D02*
X033599D01*
X033449Y065181D02*
Y065481D01*
X034299Y065331D02*
X034599D01*
X034449Y065181D02*
Y065481D01*
X035299Y065331D02*
X035599D01*
X035449Y065181D02*
Y065481D01*
X036299Y065331D02*
X036599D01*
X036449Y065181D02*
Y065481D01*
X037299Y065331D02*
X037599D01*
X037449Y065181D02*
Y065481D01*
X038299Y065331D02*
X038599D01*
X038449Y065181D02*
Y065481D01*
X039299Y065331D02*
X039599D01*
X039449Y065181D02*
Y065481D01*
X040299Y065331D02*
X040599D01*
X040449Y065181D02*
Y065481D01*
X041299Y065331D02*
X041599D01*
X041449Y065181D02*
Y065481D01*
X042299Y065331D02*
X042599D01*
X042449Y065181D02*
Y065481D01*
X043299Y065331D02*
X043599D01*
X043449Y065181D02*
Y065481D01*
X044299Y065331D02*
X044599D01*
X044449Y065181D02*
Y065481D01*
X045299Y065331D02*
X045599D01*
X045449Y065181D02*
Y065481D01*
X027819Y034331D02*
X029079D01*
X028449Y033701D02*
Y034961D01*
X046819Y033831D02*
X048079D01*
X047449Y033201D02*
Y034461D01*
X044819Y054331D02*
X046079D01*
X045449Y053701D02*
Y054961D01*
X046819Y066331D02*
X048079D01*
X047449Y065701D02*
Y066961D01*
X027819Y063831D02*
X029079D01*
X028449Y063201D02*
Y064461D01*
X047299Y050331D02*
X047599D01*
X047449Y050181D02*
Y050481D01*
X047299Y049331D02*
X047599D01*
X047449Y049181D02*
Y049481D01*
X047299Y052331D02*
X047599D01*
X047449Y052181D02*
Y052481D01*
X047299Y051331D02*
X047599D01*
X047449Y051181D02*
Y051481D01*
X047299Y048331D02*
X047599D01*
X047449Y048181D02*
Y048481D01*
X047299Y046331D02*
X047599D01*
X047449Y046181D02*
Y046481D01*
X047299Y045331D02*
X047599D01*
X047449Y045181D02*
Y045481D01*
X047299Y044331D02*
X047599D01*
X047449Y044181D02*
Y044481D01*
X047299Y043331D02*
X047599D01*
X047449Y043181D02*
Y043481D01*
X047299Y042331D02*
X047599D01*
X047449Y042181D02*
Y042481D01*
X047299Y041331D02*
X047599D01*
X047449Y041181D02*
Y041481D01*
X047299Y039331D02*
X047599D01*
X047449Y039181D02*
Y039481D01*
X047299Y040331D02*
X047599D01*
X047449Y040181D02*
Y040481D01*
X047299Y054331D02*
X047599D01*
X047449Y054181D02*
Y054481D01*
X047299Y055331D02*
X047599D01*
X047449Y055181D02*
Y055481D01*
X047299Y057331D02*
X047599D01*
X047449Y057181D02*
Y057481D01*
X047299Y058331D02*
X047599D01*
X047449Y058181D02*
Y058481D01*
X047299Y059331D02*
X047599D01*
X047449Y059181D02*
Y059481D01*
X047299Y060331D02*
X047599D01*
X047449Y060181D02*
Y060481D01*
X047299Y061331D02*
X047599D01*
X047449Y061181D02*
Y061481D01*
X047299Y062331D02*
X047599D01*
X047449Y062181D02*
Y062481D01*
X047299Y063331D02*
X047599D01*
X047449Y063181D02*
Y063481D01*
X047299Y064331D02*
X047599D01*
X047449Y064181D02*
Y064481D01*
X047299Y053331D02*
X047599D01*
X047449Y053181D02*
Y053481D01*
X028299Y062331D02*
X028599D01*
X028449Y062181D02*
Y062481D01*
X028299Y061331D02*
X028599D01*
X028449Y061181D02*
Y061481D01*
X028299Y060331D02*
X028599D01*
X028449Y060181D02*
Y060481D01*
X028299Y059331D02*
X028599D01*
X028449Y059181D02*
Y059481D01*
X028299Y058331D02*
X028599D01*
X028449Y058181D02*
Y058481D01*
X028299Y057331D02*
X028599D01*
X028449Y057181D02*
Y057481D01*
X028299Y056331D02*
X028599D01*
X028449Y056181D02*
Y056481D01*
X028299Y053331D02*
X028599D01*
X028449Y053181D02*
Y053481D01*
X028299Y052331D02*
X028599D01*
X028449Y052181D02*
Y052481D01*
X028299Y051331D02*
X028599D01*
X028449Y051181D02*
Y051481D01*
X028299Y050331D02*
X028599D01*
X028449Y050181D02*
Y050481D01*
X028299Y049331D02*
X028599D01*
X028449Y049181D02*
Y049481D01*
X028299Y048331D02*
X028599D01*
X028449Y048181D02*
Y048481D01*
X028299Y047331D02*
X028599D01*
X028449Y047181D02*
Y047481D01*
X028299Y044731D02*
X028599D01*
X028449Y044581D02*
Y044881D01*
X028299Y043731D02*
X028599D01*
X028449Y043581D02*
Y043881D01*
X028299Y042731D02*
X028599D01*
X028449Y042581D02*
Y042881D01*
X028299Y041731D02*
X028599D01*
X028449Y041581D02*
Y041881D01*
X028299Y040731D02*
X028599D01*
X028449Y040581D02*
Y040881D01*
X028299Y039731D02*
X028599D01*
X028449Y039581D02*
Y039881D01*
X028299Y038731D02*
X028599D01*
X028449Y038581D02*
Y038881D01*
X028299Y037731D02*
X028599D01*
X028449Y037581D02*
Y037881D01*
X028299Y036731D02*
X028599D01*
X028449Y036581D02*
Y036881D01*
X050886Y067331D02*
X051476D01*
X051181Y067035D02*
Y067626D01*
X050886Y06889D02*
X051476D01*
X051181Y068594D02*
Y069185D01*
X034902Y069094D02*
X035303D01*
X035102Y068894D02*
Y069295D01*
X033902Y069094D02*
X034303D01*
X034102Y068894D02*
Y069295D01*
X032902Y069094D02*
X033303D01*
X033102Y068894D02*
Y069295D01*
X031902Y069094D02*
X032303D01*
X032102Y068894D02*
Y069295D01*
X030902Y069094D02*
X031303D01*
X031102Y068894D02*
Y069295D01*
X029902Y069094D02*
X030303D01*
X030102Y068894D02*
Y069295D01*
X028902Y069094D02*
X029303D01*
X029102Y068894D02*
Y069295D01*
X027902Y069094D02*
X028303D01*
X028102Y068894D02*
Y069295D01*
X030461Y062402D02*
X030862D01*
X030661Y062201D02*
Y062602D01*
X031461Y062402D02*
X031862D01*
X031661Y062201D02*
Y062602D01*
X032461Y062402D02*
X032862D01*
X032661Y062201D02*
Y062602D01*
X033461Y062402D02*
X033862D01*
X033661Y062201D02*
Y062602D01*
X034461Y062402D02*
X034862D01*
X034661Y062201D02*
Y062602D01*
X035461Y062402D02*
X035862D01*
X035661Y062201D02*
Y062602D01*
X036461Y062402D02*
X036862D01*
X036661Y062201D02*
Y062602D01*
X037461Y062402D02*
X037862D01*
X037661Y062201D02*
Y062602D01*
X037461Y063402D02*
X037862D01*
X037661Y063201D02*
Y063602D01*
X036461Y063402D02*
X036862D01*
X036661Y063201D02*
Y063602D01*
X035461Y063402D02*
X035862D01*
X035661Y063201D02*
Y063602D01*
X034461Y063402D02*
X034862D01*
X034661Y063201D02*
Y063602D01*
X033461Y063402D02*
X033862D01*
X033661Y063201D02*
Y063602D01*
X032461Y063402D02*
X032862D01*
X032661Y063201D02*
Y063602D01*
X031461Y063402D02*
X031862D01*
X031661Y063201D02*
Y063602D01*
X030461Y063402D02*
X030862D01*
X030661Y063201D02*
Y063602D01*
X0225Y071276D02*
X022811D01*
X022655Y07112D02*
Y071431D01*
X022482Y070276D02*
X022793D01*
X022638Y07012D02*
Y070431D01*
X0225Y069276D02*
X022811D01*
X022655Y06912D02*
Y069431D01*
X028712Y072441D02*
X029162D01*
X028937Y072216D02*
Y072666D01*
X028712Y077165D02*
X029162D01*
X028937Y07694D02*
Y07739D01*
X033515Y072365D02*
X033965D01*
X03374Y07214D02*
Y07259D01*
X033515Y077165D02*
X033965D01*
X03374Y07694D02*
Y07739D01*
X027925Y074803D02*
X028375D01*
X02815Y074578D02*
Y075028D01*
X031201Y037244D02*
X031791D01*
X031496Y036949D02*
Y037539D01*
X031201Y028898D02*
X031791D01*
X031496Y028602D02*
Y029193D01*
X047382Y030709D02*
X047972D01*
X047677Y030413D02*
Y031004D01*
X039035Y030709D02*
X039626D01*
X039331Y030413D02*
Y031004D01*
X04215Y04685D02*
X042465D01*
X042307Y046693D02*
Y047008D01*
X04115Y04685D02*
X041465D01*
X041307Y046693D02*
Y047008D01*
X04315Y04685D02*
X043465D01*
X043307Y046693D02*
Y047008D01*
X04215Y051378D02*
X042465D01*
X042307Y05122D02*
Y051535D01*
X04115Y051378D02*
X041465D01*
X041307Y05122D02*
Y051535D01*
X04315Y051378D02*
X043465D01*
X043307Y05122D02*
Y051535D01*
X04215Y055906D02*
X042465D01*
X042307Y055748D02*
Y056063D01*
X04115Y055906D02*
X041465D01*
X041307Y055748D02*
Y056063D01*
X04315Y055906D02*
X043465D01*
X043307Y055748D02*
Y056063D01*
X051419Y045866D02*
X05173D01*
X051575Y045711D02*
Y046022D01*
X050419Y045849D02*
X05073D01*
X050575Y045693D02*
Y046004D01*
X049419Y045866D02*
X04973D01*
X049575Y045711D02*
Y046022D01*
X025768Y063827D02*
X026201D01*
X025984Y06361D02*
Y064043D01*
X025768Y062827D02*
X026201D01*
X025984Y06261D02*
Y063043D01*
X025768Y061827D02*
X026201D01*
X025984Y06161D02*
Y062043D01*
X025768Y060827D02*
X026201D01*
X025984Y06061D02*
Y061043D01*
X025768Y059827D02*
X026201D01*
X025984Y05961D02*
Y060043D01*
X025768Y058827D02*
X026201D01*
X025984Y05861D02*
Y059043D01*
X025768Y057827D02*
X026201D01*
X025984Y05761D02*
Y058043D01*
X025768Y056827D02*
X026201D01*
X025984Y05661D02*
Y057043D01*
X035146Y029921D02*
X035736D01*
X035441Y029626D02*
Y030217D01*
X036705Y029921D02*
X037295D01*
X037Y029626D02*
Y030217D01*
X04097Y059432D02*
X041281D01*
X041126Y059276D02*
Y059587D01*
X04197Y059449D02*
X042281D01*
X042126Y059293D02*
Y059604D01*
X04297Y059432D02*
X043281D01*
X043126Y059276D02*
Y059587D01*
X041053Y074032D02*
X041364D01*
X041209Y073876D02*
Y074187D01*
X04107Y073032D02*
X041381D01*
X041226Y072876D02*
Y073187D01*
X041053Y072031D02*
X041364D01*
X041209Y071876D02*
Y072187D01*
X043047Y038189D02*
X043598D01*
X043323Y037913D02*
Y038465D01*
X042047Y038189D02*
X042598D01*
X042323Y037913D02*
Y038465D01*
X041047Y038189D02*
X041598D01*
X041323Y037913D02*
Y038465D01*
X04315Y04252D02*
X043465D01*
X043307Y042362D02*
Y042677D01*
X04115Y04252D02*
X041465D01*
X041307Y042362D02*
Y042677D01*
X04215Y04252D02*
X042465D01*
X042307Y042362D02*
Y042677D01*
X035008Y047835D02*
X035496D01*
X035252Y047591D02*
Y048079D01*
X034008Y047835D02*
X034496D01*
X034252Y047591D02*
Y048079D01*
X033008Y047835D02*
X033496D01*
X033252Y047591D02*
Y048079D01*
X046299Y036508D02*
X046614D01*
X046457Y03635D02*
Y036665D01*
X046299Y037508D02*
X046614D01*
X046457Y03735D02*
Y037665D01*
X037835Y036114D02*
X03815D01*
X037992Y035957D02*
Y036272D01*
X037835Y037114D02*
X03815D01*
X037992Y036957D02*
Y037272D01*
X035866Y051181D02*
X036181D01*
X036024Y051024D02*
Y051339D01*
X034866Y051181D02*
X035181D01*
X035024Y051024D02*
Y051339D01*
X03685Y043898D02*
X037165D01*
X037008Y04374D02*
Y044055D01*
X03685Y044898D02*
X037165D01*
X037008Y04474D02*
Y045055D01*
X034446Y04152D02*
X034846D01*
X034646Y04132D02*
Y04172D01*
X034446Y04252D02*
X034846D01*
X034646Y04232D02*
Y04272D01*
X051236Y041929D02*
X051551D01*
X051394Y041772D02*
Y042087D01*
X050236Y041929D02*
X050551D01*
X050394Y041772D02*
Y042087D01*
X035717Y058273D02*
X036031D01*
X035874Y058115D02*
Y05843D01*
X032717Y058268D02*
X033031D01*
X032874Y05811D02*
Y058425D01*
X022874Y030709D02*
X023189D01*
X023031Y030551D02*
Y030866D01*
X021874Y030709D02*
X022189D01*
X022032Y030551D02*
Y030866D01*
X022874Y034646D02*
X023189D01*
X023031Y034488D02*
Y034803D01*
X021874Y034646D02*
X022189D01*
X022032Y034488D02*
Y034803D01*
X02289Y038386D02*
X023205D01*
X023047Y038228D02*
Y038543D01*
X02189Y038386D02*
X022205D01*
X022047Y038228D02*
Y038543D01*
X045759Y074682D02*
X046209D01*
X045984Y074457D02*
Y074907D01*
X05135Y077044D02*
X0518D01*
X051575Y076819D02*
Y077269D01*
X05135Y072244D02*
X0518D01*
X051575Y072019D02*
Y072469D01*
X046547Y077044D02*
X046997D01*
X046772Y076819D02*
Y077269D01*
X046547Y07232D02*
X046997D01*
X046772Y072095D02*
Y072545D01*
X0245Y074409D02*
X025091D01*
X024795Y074114D02*
Y074705D01*
X022941Y074409D02*
X023531D01*
X023236Y074114D02*
Y074705D01*
X022717Y067913D02*
X022953D01*
X022835Y067795D02*
Y068032D01*
X025669Y067913D02*
X025906D01*
X025787Y067795D02*
Y068032D01*
X03689Y069094D02*
X037126D01*
X037008Y068976D02*
Y069213D01*
X026302Y03099D02*
X026538D01*
X02642Y030871D02*
Y031108D01*
X025653Y046243D02*
X025889D01*
X025771Y046125D02*
Y046361D01*
X02626Y052309D02*
X026496D01*
X026378Y052191D02*
Y052427D01*
X027047Y053346D02*
X027283D01*
X027165Y053228D02*
Y053465D01*
X042854Y032677D02*
X042972D01*
X042913Y032618D02*
Y032736D01*
X048563Y059449D02*
X048681D01*
X048622Y05939D02*
Y059508D01*
X048366Y072441D02*
X048484D01*
X048425Y072382D02*
Y0725D01*
M02*
