M48
;Layer_Color=9474304
;FILE_FORMAT=2:4
INCH,LZ
;TYPE=PLATED
T1F00S00C0.0118
T2F00S00C0.0236
T3F00S00C0.0300
T4F00S00C0.0311
T5F00S00C0.0315
T6F00S00C0.0400
T7F00S00C0.0402
T8F00S00C0.0433
T9F00S00C0.0450
T10F00S00C0.0488
T11F00S00C0.0551
T12F00S00C0.0591
T13F00S00C0.1260
T14F00S00C0.1575
%
T01
X042913Y032677
X048622Y059449
X048425Y072441
T02
X02642Y03099
X025771Y046243
X026378Y052309
X027165Y053346
X025787Y067913
X022835
X037008Y069094
T03
X028449Y035731
Y036731
Y037731
Y038731
Y039731
Y040731
Y041731
Y042731
Y043731
Y044731
X028449Y046331
X047449
Y045331
Y044331
Y043331
Y042331
Y041331
Y040331
Y039331
Y048331
Y049331
Y050331
Y051331
Y052331
Y053331
Y054331
Y055331
Y057331
Y058331
Y059331
Y060331
Y061331
Y062331
X028449
Y061331
Y060331
Y059331
Y058331
Y057331
Y056331
Y055331
Y053331
Y052331
Y051331
Y050331
Y049331
Y048331
Y047331
Y065331
Y066331
X029449
X030449
Y065331
X029449
X031449
Y066331
X032449
X033449
X034449
X035449
X036449
X037449
X038449
X039449
X040449
X041449
X042449
X043449
X044449
X045449
Y065331
X044449
X043449
X042449
X041449
X040449
X039449
X038449
X037449
X036449
X035449
X034449
X033449
X032449
X047449Y064331
Y063331
T04
X049575Y045866
X050575Y045849
X051575Y045866
X051591Y05387
X050591Y053853
X049591Y05387
X043126Y059432
X042126Y059449
X041126Y059432
X022655Y069276
X022638Y070276
X022655Y071276
X041209Y072031
X041226Y073032
X041209Y074032
T05
X022032Y030709
X023031
Y034646
X022032
X022047Y038386
X023047
X037992Y037114
Y036114
X037008Y043898
Y044898
X041307Y04685
X042307
X043307
Y04252
X042307
X041307
X046457Y037508
Y036508
X050394Y041929
X051394
X051591Y058268
X050591
X043307Y055906
X042307
X041307
Y051378
X042307
X043307
X036024Y051181
X035024
X035874Y058273
X032874Y058268
X049787Y062598
X050787
X051787
T06
X034646Y04152
Y04252
T07
X031661Y062402
X032661
X033661
X034661
X035661
X036661
X037661
X030661
Y063402
X031102Y069094
X030102
X029102
X028102
X032102
X033102
X034102
X035102
X034661Y063402
X035661
X036661
X037661
X033661
X032661
X031661
T08
X025984Y056827
Y057827
Y058827
Y059827
Y060827
Y061827
Y062827
Y063827
T09
X028937Y072441
X02815Y074803
X028937Y077165
X03374
Y072365
X046772Y07232
X045984Y074682
X046772Y077044
X051575
Y072244
T10
X033252Y047835
X034252
X035252
T11
X041323Y038189
X042323
X043323
T12
X047677Y030709
X039331
X037Y029921
X035441
X031496Y028898
X024787Y042717
X023228
X021669
X031496Y037244
X024795Y074409
X023236
X051181Y06889
Y067331
T13
X028449Y034331
X047449Y033831
X045449Y054331
X034449
X028449Y063831
X047449Y066331
T14
X052756Y027559
X041339
X021063
X021457Y059055
X05315Y078937
X025591Y07874
X021063
M30
