G04*
G04 #@! TF.GenerationSoftware,Altium Limited,Altium Designer,21.3.2 (30)*
G04*
G04 Layer_Color=255*
%FSTAX24Y24*%
%MOIN*%
G70*
G04*
G04 #@! TF.SameCoordinates,1A830F01-20DA-4C5A-9A70-DFAE4FF976D2*
G04*
G04*
G04 #@! TF.FilePolarity,Positive*
G04*
G01*
G75*
%ADD17R,0.0984X0.0669*%
%ADD18R,0.0669X0.0984*%
%ADD19R,0.0472X0.0551*%
%ADD20R,0.0551X0.0472*%
%ADD21O,0.0630X0.0886*%
%ADD22R,0.0600X0.0650*%
%ADD23R,0.0669X0.0669*%
%ADD24R,0.0669X0.0669*%
G04:AMPARAMS|DCode=25|XSize=77.6mil|YSize=23.2mil|CornerRadius=2.9mil|HoleSize=0mil|Usage=FLASHONLY|Rotation=0.000|XOffset=0mil|YOffset=0mil|HoleType=Round|Shape=RoundedRectangle|*
%AMROUNDEDRECTD25*
21,1,0.0776,0.0174,0,0,0.0*
21,1,0.0718,0.0232,0,0,0.0*
1,1,0.0058,0.0359,-0.0087*
1,1,0.0058,-0.0359,-0.0087*
1,1,0.0058,-0.0359,0.0087*
1,1,0.0058,0.0359,0.0087*
%
%ADD25ROUNDEDRECTD25*%
%ADD70C,0.0984*%
%ADD71R,0.0984X0.0984*%
%ADD72R,0.0630X0.0630*%
%ADD73C,0.0630*%
%ADD74C,0.1772*%
%ADD75R,0.0511X0.0511*%
%ADD76C,0.0511*%
%ADD77C,0.0600*%
%ADD78R,0.0600X0.0600*%
%ADD79R,0.0984X0.0984*%
%ADD80C,0.0598*%
%ADD81R,0.0598X0.0598*%
%ADD82R,0.0511X0.0511*%
%ADD83C,0.1200*%
%ADD84R,0.0886X0.0886*%
%ADD85C,0.0886*%
%ADD86R,0.0886X0.0886*%
%ADD87R,0.0630X0.0630*%
%ADD88C,0.0827*%
%ADD89R,0.0827X0.0827*%
%ADD90R,0.0732X0.0732*%
%ADD91C,0.0732*%
%ADD92O,0.0591X0.0512*%
%ADD93R,0.0591X0.0512*%
%ADD94O,0.0512X0.0591*%
%ADD95R,0.0512X0.0591*%
%ADD96C,0.0650*%
%ADD97P,0.0704X8X292.5*%
%ADD98R,0.0591X0.0591*%
%ADD99C,0.0591*%
D17*
X040157Y070472D02*
D03*
X041732D02*
D03*
X044488Y069882D02*
D03*
X046063D02*
D03*
X024606Y066339D02*
D03*
X026181D02*
D03*
D18*
X043504Y072835D02*
D03*
Y074409D02*
D03*
X025984Y070669D02*
D03*
Y069094D02*
D03*
D19*
X023031Y061614D02*
D03*
X022283D02*
D03*
X021281Y046039D02*
D03*
X022029D02*
D03*
X021281Y048008D02*
D03*
X022029D02*
D03*
X049234Y055882D02*
D03*
X049982D02*
D03*
X023049Y056301D02*
D03*
X023797D02*
D03*
X021636Y050983D02*
D03*
X020888D02*
D03*
X041711Y076402D02*
D03*
X040963D02*
D03*
X033443Y044512D02*
D03*
X032695D02*
D03*
X045276Y058858D02*
D03*
X044528D02*
D03*
D20*
X024189Y068325D02*
D03*
Y069073D02*
D03*
X049779Y048797D02*
D03*
Y048049D02*
D03*
X051157Y051553D02*
D03*
Y050805D02*
D03*
X051181Y048032D02*
D03*
Y04878D02*
D03*
X037008Y07122D02*
D03*
Y070472D02*
D03*
X025418Y03014D02*
D03*
Y030888D02*
D03*
Y034077D02*
D03*
Y034825D02*
D03*
Y03762D02*
D03*
Y038368D02*
D03*
X037598Y059016D02*
D03*
Y058268D02*
D03*
X021062Y054742D02*
D03*
Y05549D02*
D03*
Y052577D02*
D03*
Y053325D02*
D03*
D21*
X02135Y063681D02*
D03*
X02235D02*
D03*
Y067028D02*
D03*
X02135D02*
D03*
X03828Y075886D02*
D03*
X03928D02*
D03*
Y072539D02*
D03*
X03828D02*
D03*
D22*
X025Y046063D02*
D03*
X02358D02*
D03*
X025042Y048032D02*
D03*
X023622D02*
D03*
D23*
X03248Y040295D02*
D03*
Y041595D02*
D03*
D24*
X034705Y037205D02*
D03*
X033406D02*
D03*
X037343Y040551D02*
D03*
X038642D02*
D03*
X033405Y034843D02*
D03*
X034705D02*
D03*
D25*
X022845Y054309D02*
D03*
Y053809D02*
D03*
Y053309D02*
D03*
Y052809D02*
D03*
Y052309D02*
D03*
Y051809D02*
D03*
Y051309D02*
D03*
Y050809D02*
D03*
X024793D02*
D03*
Y051309D02*
D03*
Y051809D02*
D03*
Y052309D02*
D03*
Y052809D02*
D03*
Y053309D02*
D03*
Y053809D02*
D03*
Y054309D02*
D03*
D70*
X023228Y042717D02*
D03*
X021669D02*
D03*
X051181Y06889D02*
D03*
X035441Y029921D02*
D03*
X023236Y074409D02*
D03*
D71*
X024787Y042717D02*
D03*
X037Y029921D02*
D03*
X024795Y074409D02*
D03*
D72*
X051591Y058268D02*
D03*
X051787Y062598D02*
D03*
X041307Y04685D02*
D03*
Y051378D02*
D03*
Y055906D02*
D03*
Y04252D02*
D03*
X051394Y041929D02*
D03*
X023031Y030709D02*
D03*
Y034646D02*
D03*
X023047Y038386D02*
D03*
D73*
X050591Y058268D02*
D03*
X050787Y062598D02*
D03*
X049787D02*
D03*
X034449Y054331D02*
D03*
X028449Y034331D02*
D03*
X047449Y033831D02*
D03*
X045449Y054331D02*
D03*
X047449Y066331D02*
D03*
X028449Y063831D02*
D03*
X042307Y04685D02*
D03*
X043307D02*
D03*
X042307Y051378D02*
D03*
X043307D02*
D03*
X042307Y055906D02*
D03*
X043307D02*
D03*
X025984Y063827D02*
D03*
Y062827D02*
D03*
Y061827D02*
D03*
Y060827D02*
D03*
Y059827D02*
D03*
Y058827D02*
D03*
Y057827D02*
D03*
X043307Y04252D02*
D03*
X042307D02*
D03*
X050394Y041929D02*
D03*
X022032Y030709D02*
D03*
Y034646D02*
D03*
X022047Y038386D02*
D03*
D74*
X021457Y059055D02*
D03*
X025591Y07874D02*
D03*
X021063D02*
D03*
X05315Y078937D02*
D03*
X041339Y027559D02*
D03*
X052756D02*
D03*
X021063D02*
D03*
D75*
X051591Y05387D02*
D03*
X051575Y045866D02*
D03*
X041126Y059432D02*
D03*
D76*
X050591Y053853D02*
D03*
X049591Y05387D02*
D03*
X022655Y071276D02*
D03*
X022638Y070276D02*
D03*
X050575Y045849D02*
D03*
X049575Y045866D02*
D03*
X042126Y059449D02*
D03*
X043126Y059432D02*
D03*
X041226Y073032D02*
D03*
X041209Y072031D02*
D03*
D77*
X028449Y035731D02*
D03*
X028449Y046331D02*
D03*
Y055331D02*
D03*
Y066331D02*
D03*
X029449D02*
D03*
X030449D02*
D03*
X031449D02*
D03*
X032449D02*
D03*
X033449D02*
D03*
X034449D02*
D03*
X035449D02*
D03*
X036449D02*
D03*
X037449D02*
D03*
X038449D02*
D03*
X039449D02*
D03*
X040449D02*
D03*
X041449D02*
D03*
X042449D02*
D03*
X043449D02*
D03*
X044449D02*
D03*
X045449D02*
D03*
X028449Y065331D02*
D03*
X029449D02*
D03*
X030449D02*
D03*
X031449D02*
D03*
X032449D02*
D03*
X033449D02*
D03*
X034449D02*
D03*
X035449D02*
D03*
X036449D02*
D03*
X037449D02*
D03*
X038449D02*
D03*
X039449D02*
D03*
X040449D02*
D03*
X041449D02*
D03*
X042449D02*
D03*
X043449D02*
D03*
X044449D02*
D03*
X045449D02*
D03*
X047449Y050331D02*
D03*
Y049331D02*
D03*
Y052331D02*
D03*
Y051331D02*
D03*
Y045331D02*
D03*
Y044331D02*
D03*
Y043331D02*
D03*
Y042331D02*
D03*
Y041331D02*
D03*
Y039331D02*
D03*
Y040331D02*
D03*
Y054331D02*
D03*
Y055331D02*
D03*
Y058331D02*
D03*
Y059331D02*
D03*
Y060331D02*
D03*
Y061331D02*
D03*
Y062331D02*
D03*
Y063331D02*
D03*
Y064331D02*
D03*
Y053331D02*
D03*
X028449Y061331D02*
D03*
Y060331D02*
D03*
Y059331D02*
D03*
Y058331D02*
D03*
Y057331D02*
D03*
Y056331D02*
D03*
Y052331D02*
D03*
Y051331D02*
D03*
Y050331D02*
D03*
Y049331D02*
D03*
Y048331D02*
D03*
Y047331D02*
D03*
X028449Y043731D02*
D03*
Y042731D02*
D03*
Y041731D02*
D03*
Y040731D02*
D03*
Y039731D02*
D03*
Y038731D02*
D03*
Y037731D02*
D03*
Y036731D02*
D03*
D78*
X047449Y048331D02*
D03*
Y046331D02*
D03*
Y057331D02*
D03*
X028449Y062331D02*
D03*
Y053331D02*
D03*
X028449Y044731D02*
D03*
D79*
X051181Y067331D02*
D03*
D80*
X035102Y069094D02*
D03*
X034102D02*
D03*
X033102D02*
D03*
X032102D02*
D03*
X031102D02*
D03*
X030102D02*
D03*
X029102D02*
D03*
X030661Y062402D02*
D03*
X031661D02*
D03*
X032661D02*
D03*
X033661D02*
D03*
X034661D02*
D03*
X035661D02*
D03*
X036661D02*
D03*
X037661D02*
D03*
Y063402D02*
D03*
X036661D02*
D03*
X035661D02*
D03*
X034661D02*
D03*
X033661D02*
D03*
X032661D02*
D03*
X031661D02*
D03*
D81*
X028102Y069094D02*
D03*
X030661Y063402D02*
D03*
D82*
X022655Y069276D02*
D03*
X041209Y074032D02*
D03*
D83*
X028937Y072441D02*
D03*
Y077165D02*
D03*
X03374Y072365D02*
D03*
Y077165D02*
D03*
X02815Y074803D02*
D03*
X045984Y074682D02*
D03*
X051575Y077044D02*
D03*
Y072244D02*
D03*
X046772Y077044D02*
D03*
Y07232D02*
D03*
D84*
X031496Y037244D02*
D03*
D85*
Y028898D02*
D03*
X039331Y030709D02*
D03*
D86*
X047677D02*
D03*
D87*
X025984Y056827D02*
D03*
D88*
X043323Y038189D02*
D03*
X042323D02*
D03*
D89*
X041323D02*
D03*
D90*
X035252Y047835D02*
D03*
D91*
X034252D02*
D03*
X033252D02*
D03*
D92*
X046457Y036508D02*
D03*
X037992Y036114D02*
D03*
X037008Y043898D02*
D03*
D93*
X046457Y037508D02*
D03*
X037992Y037114D02*
D03*
X037008Y044898D02*
D03*
D94*
X036024Y051181D02*
D03*
D95*
X035024D02*
D03*
D96*
X034646Y04152D02*
D03*
D97*
Y04252D02*
D03*
D98*
X035874Y058273D02*
D03*
D99*
X032874Y058268D02*
D03*
M02*
